<svg width="680" height="500" viewBox="0 0 680 500" fill="none" xmlns="http://www.w3.org/2000/svg">
  <rect width="680" height="500" rx="32" fill="#F2C230"/>
  <circle cx="342" cy="248" r="190" fill="#FFFDF8"/>
  <path d="M132 289L245 222L339 278V390L226 451L132 397V289Z" fill="#B92D24"/>
  <path d="M339 278L441 218L545 279V390L441 448L339 390V278Z" fill="#17110D"/>
  <path d="M132 289L226 345L339 278M226 345V451M339 278L441 337L545 279M441 337V448" stroke="#FFFDF8" stroke-width="10" stroke-linejoin="round"/>
  <path d="M250 216V161C250 136 270 116 295 116C320 116 340 136 340 161V278" stroke="#17110D" stroke-width="13" stroke-linecap="round"/>
  <path d="M374 216V161C374 136 394 116 419 116C444 116 464 136 464 161V224" stroke="#B92D24" stroke-width="13" stroke-linecap="round"/>
  <circle cx="515" cy="128" r="25" fill="#B92D24"/>
  <path d="M515 115V141M502 128H528" stroke="#FFFDF8" stroke-width="7" stroke-linecap="round"/>
  <text x="340" y="482" text-anchor="middle" font-family="Arial, sans-serif" font-size="17" font-weight="800" letter-spacing="4" fill="#17110D">FIND SOMETHING GOOD</text>
</svg>
